<?xml version="1.0" encoding="UTF-8"?>
<svg id="Layer_1" data-name="Layer 1" xmlns="http://www.w3.org/2000/svg" viewBox="0 0 485.12 395.35">
  <defs>
    <style>
      .cls-1 {
        fill: #26425b;
      }

      .cls-2 {
        fill: #fff;
      }

      .cls-3 {
        fill: #42a49d;
      }

      .cls-4 {
        fill: #7550db;
      }

      .cls-5 {
        fill: #41ecf9;
      }
    </style>
  </defs>
  <polygon class="cls-4" points="307.66 56.63 328.8 110.93 362.77 201.76 398.8 294.92 427.79 357.98 295.99 272.19 267.16 189.2 307.66 56.63"/>
  <path class="cls-5" d="m14.46,376.37s22.6-11.26,25.15-14.27c2.55-3.01,32.9-57.93,32.9-57.93,0,0,1.55-2.78,3.72-1.82s11.79,5.21,11.79,5.21c0,0,2.43,2.52,5-1.08s16.7-23.06,16.7-23.06c0,0,2.18-2.86,5.86-1.06,3.68,1.79,16.83,6.64,16.83,6.64,0,0,1.57,2.1,5.45-2.89s26.51-32.86,48.64-64.93c22.12-32.07,34.32-48.19,34.32-48.19,0,0,7.87-7.65,17.14-5.98,9.27,1.67,11.59-9.51,11.59-9.51,0,0,39.59-71.08,47.33-91.42,7.75-20.35,11.38-8.15,11.38-8.15,0,0,2.57,22.72-9.56,50.51-12.13,27.79-29.94,80.23-29.94,80.23l-71.73,108.97L24.85,374.68l-10.39,1.69Z"/>
  <circle class="cls-3" cx="329.19" cy="46.97" r="12.1"/>
  <circle class="cls-4" cx="160.07" cy="184.36" r="12.1"/>
  <g>
    <circle class="cls-5" cx="185.93" cy="161.11" r="2.24"/>
    <path class="cls-5" d="m185.93,154.39c-3.71,0-6.71,3.01-6.71,6.71s3.01,6.71,6.71,6.71,6.71-3.01,6.71-6.71-3.01-6.71-6.71-6.71Zm0,11.06c-2.4,0-4.34-1.95-4.34-4.34s1.95-4.34,4.34-4.34,4.34,1.95,4.34,4.34-1.95,4.34-4.34,4.34Z"/>
  </g>
  <polygon class="cls-4" points="83.62 273.12 82.98 271.25 128.73 255.5 141.71 235.49 156.76 238.94 208.76 145.18 226.22 153.77 281.74 49.01 292.75 49.82 304.15 27.28 305.91 28.18 293.92 51.88 282.88 51.07 227.07 156.38 209.58 147.78 157.76 241.2 142.62 237.72 130.02 257.14 83.62 273.12"/>
  <path class="cls-1" d="m451.75,377.75l-18.56-9.07-9.69-19.56-101.05-72.86s-9.43-8.24-20-27.8c-10.57-19.56-29.08-54.14-29.08-54.14l-8.19-12.85-4.14,96.07s143.57,93.18,190.72,100.21Z"/>
  <path class="cls-3" d="m22.76,375s32.17-16.37,52.91-31.33c20.74-14.96,72.19-57.02,72.19-57.02,0,0,2.67-3.86,7.4-1.6,4.73,2.26,8.5,2.47,8.5,2.47,0,0,2.88,2.13,7.02-1.78s44.43-52.04,56.87-76.15l3.98-6.5s3.06,2.37,5.53,1.86,18.46-14.51,21.97-17.83c3.51-3.31,6.04-5.66,6.04-5.66l-4.24,96.02s-175.1,84.56-238.17,97.52Z"/>
  <ellipse class="cls-2" cx="131.58" cy="256.08" rx="5.12" ry="4.34"/>
  <g>
    <circle class="cls-5" cx="131.58" cy="256.08" r="2.24"/>
    <path class="cls-5" d="m131.58,249.37c-3.71,0-6.71,3.01-6.71,6.71s3.01,6.71,6.71,6.71,6.71-3.01,6.71-6.71-3.01-6.71-6.71-6.71Zm0,11.06c-2.4,0-4.34-1.95-4.34-4.34s1.95-4.34,4.34-4.34,4.34,1.95,4.34,4.34-1.95,4.34-4.34,4.34Z"/>
  </g>
  <g>
    <circle class="cls-4" cx="78.94" cy="273.67" r="2.24"/>
    <path class="cls-4" d="m78.94,266.95c-3.71,0-6.71,3.01-6.71,6.71s3.01,6.71,6.71,6.71,6.71-3.01,6.71-6.71-3.01-6.71-6.71-6.71Zm0,11.06c-2.4,0-4.34-1.95-4.34-4.34s1.95-4.34,4.34-4.34,4.34,1.95,4.34,4.34-1.95,4.34-4.34,4.34Z"/>
  </g>
  <g>
    <circle class="cls-5" cx="306.7" cy="23.41" r="2.24"/>
    <path class="cls-5" d="m306.7,16.69c-3.71,0-6.71,3.01-6.71,6.71s3.01,6.71,6.71,6.71,6.71-3.01,6.71-6.71-3.01-6.71-6.71-6.71Zm0,11.06c-2.4,0-4.34-1.95-4.34-4.34s1.95-4.34,4.34-4.34,4.34,1.95,4.34,4.34-1.95,4.34-4.34,4.34Z"/>
  </g>
</svg>