<?xml version="1.0" encoding="UTF-8"?>
<svg id="Layer_1" data-name="Layer 1" xmlns="http://www.w3.org/2000/svg" viewBox="0 0 1581.21 361.06">
  <defs>
    <style>
      .cls-1 {
        fill: #26425b;
      }

      .cls-2 {
        fill: #fff;
      }

      .cls-3 {
        fill: #42a49d;
      }

      .cls-4 {
        fill: #7550db;
      }

      .cls-5 {
        fill: #41ecf9;
      }

      .cls-6 {
        fill: #43535e;
      }
    </style>
  </defs>
  <g>
    <polygon class="cls-6" points="293.21 39.93 314.34 94.24 348.31 185.06 384.34 278.23 413.33 341.29 281.54 255.49 252.71 172.51 293.21 39.93"/>
    <path class="cls-5" d="m0,359.68s22.6-11.26,25.15-14.27c2.55-3.01,32.9-57.93,32.9-57.93,0,0,1.55-2.78,3.72-1.82s11.79,5.21,11.79,5.21c0,0,2.43,2.52,5-1.08s16.7-23.06,16.7-23.06c0,0,2.18-2.86,5.86-1.06,3.68,1.79,16.83,6.64,16.83,6.64,0,0,1.57,2.1,5.45-2.89s26.51-32.86,48.64-64.93c22.12-32.07,34.32-48.19,34.32-48.19,0,0,7.87-7.65,17.14-5.98,9.27,1.67,11.59-9.51,11.59-9.51,0,0,39.59-71.08,47.33-91.42,7.75-20.35,11.38-8.15,11.38-8.15,0,0,2.57,22.72-9.56,50.51-12.13,27.79-29.94,80.23-29.94,80.23l-71.73,108.97L10.39,357.99l-10.39,1.69Z"/>
    <circle class="cls-1" cx="314.73" cy="30.28" r="12.1"/>
    <circle class="cls-5" cx="145.61" cy="167.67" r="12.1"/>
    <g>
      <circle class="cls-5" cx="171.47" cy="144.42" r="2.24"/>
      <path class="cls-5" d="m171.47,137.7c-3.71,0-6.71,3.01-6.71,6.71s3.01,6.71,6.71,6.71,6.71-3.01,6.71-6.71-3.01-6.71-6.71-6.71Zm0,11.06c-2.4,0-4.34-1.95-4.34-4.34s1.95-4.34,4.34-4.34,4.34,1.95,4.34,4.34-1.95,4.34-4.34,4.34Z"/>
    </g>
    <polygon class="cls-2" points="69.17 256.43 68.52 254.56 114.28 238.81 127.25 218.8 142.3 222.25 194.3 128.49 211.77 137.08 267.29 32.32 278.29 33.13 289.7 10.59 291.46 11.48 279.46 35.19 268.43 34.38 212.61 139.69 195.12 131.09 143.3 224.51 128.16 221.03 115.56 240.45 115.24 240.56 69.17 256.43"/>
    <path class="cls-1" d="m437.29,361.06l-18.56-9.07-9.69-19.56-101.05-72.86s-9.43-8.24-20-27.8c-10.57-19.56-29.08-54.14-29.08-54.14l-8.19-12.85-4.14,96.07s143.57,93.18,190.72,100.21Z"/>
    <path class="cls-3" d="m8.3,358.31s32.17-16.37,52.91-31.33c20.74-14.96,72.19-57.02,72.19-57.02,0,0,2.67-3.86,7.4-1.6,4.73,2.26,8.5,2.47,8.5,2.47,0,0,2.88,2.13,7.02-1.78,4.13-3.91,44.43-52.04,56.87-76.15l3.98-6.5s3.06,2.37,5.53,1.86c2.47-.51,18.46-14.51,21.97-17.83,3.51-3.31,6.04-5.66,6.04-5.66l-4.24,96.02S71.38,345.36,8.3,358.31Z"/>
    <ellipse class="cls-4" cx="117.12" cy="239.39" rx="5.12" ry="4.34"/>
    <g>
      <circle class="cls-5" cx="117.12" cy="239.39" r="2.24"/>
      <path class="cls-5" d="m117.12,232.68c-3.71,0-6.71,3.01-6.71,6.71s3.01,6.71,6.71,6.71,6.71-3.01,6.71-6.71-3.01-6.71-6.71-6.71Zm0,11.06c-2.4,0-4.34-1.95-4.34-4.34s1.95-4.34,4.34-4.34,4.34,1.95,4.34,4.34-1.95,4.34-4.34,4.34Z"/>
    </g>
    <g>
      <circle class="cls-2" cx="64.48" cy="256.97" r="2.24"/>
      <path class="cls-2" d="m64.48,250.26c-3.71,0-6.71,3.01-6.71,6.71s3.01,6.71,6.71,6.71,6.71-3.01,6.71-6.71-3.01-6.71-6.71-6.71Zm0,11.06c-2.4,0-4.34-1.95-4.34-4.34s1.95-4.34,4.34-4.34,4.34,1.95,4.34,4.34-1.95,4.34-4.34,4.34Z"/>
    </g>
    <g>
      <circle class="cls-5" cx="292.24" cy="6.71" r="2.24"/>
      <path class="cls-5" d="m292.24,0c-3.71,0-6.71,3.01-6.71,6.71s3.01,6.71,6.71,6.71,6.71-3.01,6.71-6.71-3.01-6.71-6.71-6.71Zm0,11.06c-2.4,0-4.34-1.95-4.34-4.34s1.95-4.34,4.34-4.34,4.34,1.95,4.34,4.34-1.95,4.34-4.34,4.34Z"/>
    </g>
  </g>
  <g>
    <path class="cls-2" d="m470.5,180.6l-42.72-127.92h25.63l30.27,95.45,29.78-95.45h25.88l-42.48,127.92v69.82h-26.36v-69.82Z"/>
    <path class="cls-2" d="m649.43,195l24.41-6.59c1.46,21.24,6.84,42.48,28.07,42.48,14.16,0,21.73-8.06,21.73-23.19,0-17.82-9.03-27.1-21.48-38.08l-33.2-29.29c-13.18-11.47-19.04-23.92-19.04-43.7,0-29.05,17.82-45.65,46.38-45.65,31.49,0,46.63,16.35,49.8,51.02l-23.44,6.35c-1.47-19.53-5.86-36.13-26.36-36.13-13.67,0-21.73,7.32-21.73,21.73,0,11.96,3.66,18.8,12.94,26.85l33.44,29.29c14.89,13.18,28.32,30.76,28.32,55.41,0,29.29-19.77,47.11-47.36,47.11-34.42,0-50.53-23.44-52.48-57.61Z"/>
    <path class="cls-2" d="m864.74,186.95v-69.82c0-40.04,11.23-66.16,53.22-66.16,36.86,0,49.8,21.24,49.8,56.88v15.62h-26.12v-13.91c0-21.97-.49-37.11-23.44-37.11s-25.63,16.11-25.63,40.52v78.36c0,29.78,6.59,39.55,25.63,39.55,22.21,0,23.44-15.87,23.44-39.3v-14.65h26.12v14.65c0,36.37-10.98,61.03-49.8,61.03-41.99,0-53.22-28.81-53.22-65.67Z"/>
    <path class="cls-2" d="m1123.01,52.68h26.61l42.23,197.73h-26.12l-9.03-49.8h-40.28l-9.52,49.8h-25.88l41.99-197.73Zm30.03,128.16l-16.6-89.1-16.36,89.1h32.95Z"/>
    <path class="cls-2" d="m1309.52,52.68h27.58v177.96h50.53v19.77h-78.12V52.68Z"/>
    <path class="cls-2" d="m1504.07,52.68h76.65v20.5h-49.07v65.42h39.79v19.53h-39.79v72.5h49.56v19.77h-77.14V52.68Z"/>
  </g>
  <g>
    <path class="cls-5" d="m470.66,335.84v-12.51c0-8.17,2.12-12.92,10.02-12.92,7.02,0,9.74,3.51,9.74,10.89v1.38h-4.89v-1.15c0-4.85-.55-7.06-4.75-7.06-4.62,0-4.89,3.46-4.89,8.08v13.85c0,5.4.92,8.03,5.03,8.03s5.08-2.91,5.08-8.54v-2.58h-4.75v-3.69h9.46v18.51h-3.28l-.51-4.29c-1.01,2.77-2.95,4.75-6.65,4.75-7.02,0-9.6-4.66-9.6-12.74Z"/>
    <path class="cls-5" d="m514.5,310.73h14.49v3.88h-9.28v12.37h7.52v3.69h-7.52v13.71h9.37v3.74h-14.58v-37.38Z"/>
    <path class="cls-5" d="m550.64,337.64l4.62-1.25c.28,4.01,1.29,8.03,5.31,8.03,2.68,0,4.11-1.52,4.11-4.38,0-3.37-1.71-5.12-4.06-7.2l-6.28-5.54c-2.49-2.17-3.6-4.52-3.6-8.26,0-5.49,3.37-8.63,8.77-8.63,5.95,0,8.82,3.09,9.42,9.65l-4.43,1.2c-.28-3.69-1.11-6.83-4.98-6.83-2.58,0-4.11,1.39-4.11,4.11,0,2.26.69,3.55,2.45,5.08l6.32,5.54c2.82,2.49,5.35,5.82,5.35,10.48,0,5.54-3.74,8.91-8.95,8.91-6.51,0-9.55-4.43-9.92-10.89Z"/>
    <path class="cls-5" d="m596.14,314.61h-6.32v-3.88h17.68v3.88h-6.14v33.51h-5.22v-33.51Z"/>
    <path class="cls-5" d="m635.36,310.73h5.03l7.98,37.38h-4.94l-1.71-9.42h-7.62l-1.8,9.42h-4.89l7.94-37.38Zm0-7.89c-1.06,0-1.57.51-1.57,1.89h-2.82c0-2.77.88-4.98,3.69-4.98,2.31,0,3.88,2.22,5.86,2.22,1.06,0,1.52-.46,1.52-1.94h2.77c0,2.77-.69,5.08-3.42,5.08s-4.06-2.26-6.05-2.26Zm5.68,32.12l-3.14-16.85-3.09,16.85h6.23Z"/>
    <path class="cls-5" d="m669.74,336.39v-14.17c0-7.39,2.68-11.82,10.25-11.82s10.2,4.48,10.2,11.82v14.21c0,7.34-2.68,12.09-10.2,12.09s-10.25-4.71-10.25-12.14Zm15.19,1.15v-16.38c0-4.15-.78-6.69-4.94-6.69s-4.98,2.54-4.98,6.69v16.38c0,4.15.78,6.88,4.98,6.88s4.94-2.72,4.94-6.88Z"/>
    <path class="cls-5" d="m742.14,332.33h10.29v3.74h-10.29v-3.74Z"/>
    <path class="cls-5" d="m805.69,310.73h5.12l6.6,30.32,6.65-30.32h5.08l.69,37.38h-4.2l-.42-27.14-6.32,27.14h-2.95l-6.28-27.14-.42,27.14h-4.25l.69-37.38Z"/>
    <path class="cls-5" d="m859.91,310.73h5.03l7.98,37.38h-4.94l-1.71-9.42h-7.62l-1.8,9.42h-4.89l7.94-37.38Zm5.68,24.23l-3.14-16.85-3.09,16.85h6.23Z"/>
    <path class="cls-5" d="m895.17,310.73h7.52c7.48,0,10.98,2.82,10.98,9.92,0,4.38-1.29,7.62-4.62,8.72l5.31,18.74h-5.03l-4.89-17.54h-4.06v17.54h-5.22v-37.38Zm7.2,16.11c4.39,0,6.28-1.38,6.28-6.18,0-4.38-1.2-6.18-5.95-6.18h-2.31v12.37h1.98Z"/>
    <path class="cls-5" d="m937.58,310.73h5.22v17.63l8.58-17.63h4.85l-7.38,16.48,8.58,20.91h-5.08l-7.15-17.54-2.4,4.34v13.2h-5.22v-37.38Z"/>
    <path class="cls-5" d="m978.88,310.73h14.49v3.88h-9.28v12.37h7.52v3.69h-7.52v13.71h9.37v3.74h-14.59v-37.38Z"/>
    <path class="cls-5" d="m1020.22,314.61h-6.32v-3.88h17.68v3.88h-6.14v33.51h-5.22v-33.51Z"/>
    <path class="cls-5" d="m1053.91,310.73h5.12v37.38h-5.12v-37.38Z"/>
    <path class="cls-5" d="m1083.54,310.73h3.55l10.62,24.83v-24.83h4.34v37.38h-3.32l-10.75-25.52v25.52h-4.43v-37.38Z"/>
    <path class="cls-5" d="m1125.67,335.84v-12.51c0-8.17,2.12-12.92,10.02-12.92,7.02,0,9.74,3.51,9.74,10.89v1.38h-4.89v-1.15c0-4.85-.55-7.06-4.75-7.06-4.62,0-4.89,3.46-4.89,8.08v13.85c0,5.4.92,8.03,5.03,8.03s5.08-2.91,5.08-8.54v-2.58h-4.75v-3.69h9.46v18.51h-3.28l-.51-4.29c-1.02,2.77-2.95,4.75-6.65,4.75-7.02,0-9.6-4.66-9.6-12.74Z"/>
    <path class="cls-5" d="m1197.89,332.33h10.29v3.74h-10.29v-3.74Z"/>
    <path class="cls-5" d="m1258.99,310.73h4.89l5.91,27.55,5.63-27.55h4.75l-8.26,37.38h-4.57l-8.35-37.38Z"/>
    <path class="cls-5" d="m1302.6,310.73h14.49v3.88h-9.28v12.37h7.52v3.69h-7.52v13.71h9.37v3.74h-14.58v-37.38Z"/>
    <path class="cls-5" d="m1339.84,310.73h3.55l10.62,24.83v-24.83h4.34v37.38h-3.32l-10.75-25.52v25.52h-4.43v-37.38Z"/>
    <path class="cls-5" d="m1382.66,310.73h8.12c8.31,0,11.08,3.83,11.08,11.4v13.75c0,7.94-2.82,12.23-10.66,12.23h-8.54v-37.38Zm8.17,33.65c5.68,0,5.77-3.41,5.77-9.46v-12.14c0-5.77-.55-8.17-5.91-8.17h-2.81v29.77h2.95Z"/>
    <path class="cls-5" d="m1431.35,310.73h5.03l7.98,37.38h-4.94l-1.71-9.42h-7.62l-1.8,9.42h-4.89l7.94-37.38Zm5.68,24.23l-3.14-16.85-3.09,16.85h6.23Z"/>
    <path class="cls-5" d="m1465.49,337.64l4.62-1.25c.28,4.01,1.29,8.03,5.31,8.03,2.68,0,4.11-1.52,4.11-4.38,0-3.37-1.71-5.12-4.06-7.2l-6.28-5.54c-2.49-2.17-3.6-4.52-3.6-8.26,0-5.49,3.37-8.63,8.77-8.63,5.95,0,8.81,3.09,9.42,9.65l-4.43,1.2c-.28-3.69-1.11-6.83-4.98-6.83-2.59,0-4.11,1.39-4.11,4.11,0,2.26.69,3.55,2.45,5.08l6.32,5.54c2.82,2.49,5.35,5.82,5.35,10.48,0,5.54-3.74,8.91-8.95,8.91-6.51,0-9.55-4.43-9.92-10.89Z"/>
  </g>
</svg>